<?xml version="1.0" encoding="utf-8"?>
<!-- Generated by IcoMoon.io -->
<!DOCTYPE svg PUBLIC "-//W3C//DTD SVG 1.1//EN" "http://www.w3.org/Graphics/SVG/1.1/DTD/svg11.dtd">
<svg version="1.1" xmlns="http://www.w3.org/2000/svg" xmlns:xlink="http://www.w3.org/1999/xlink" width="28" height="28" viewBox="0 0 28 28">
<path d="M24.234 23.063q0.234-0.094 0.406-0.047t0.172 0.273-0.234 0.523q-0.203 0.25-0.688 0.68t-1.492 1.062-2.203 1.156-2.938 0.906-3.586 0.383q-1.859 0-3.719-0.484t-3.266-1.195-2.695-1.625-2.070-1.641-1.313-1.367q-0.125-0.141-0.156-0.258t0.016-0.187 0.125-0.109 0.18-0.031 0.18 0.070q3 1.828 4.688 2.594 6.078 2.75 12.484 1.406 2.969-0.625 6.109-2.109zM27.469 21.266q0.172 0.25 0.039 1.086t-0.445 1.602q-0.531 1.297-1.328 1.937-0.266 0.219-0.406 0.141t0-0.375q0.328-0.703 0.695-1.898t0.102-1.539q-0.078-0.109-0.242-0.18t-0.422-0.094-0.461-0.039-0.547 0-0.492 0.031-0.484 0.047-0.352 0.031q-0.094 0.016-0.203 0.023t-0.172 0.016-0.133 0.016-0.109 0.008h-0.156t-0.047-0.008-0.031-0.023l-0.023-0.047q-0.094-0.25 0.734-0.625t1.609-0.469q0.719-0.109 1.687-0.016t1.188 0.375zM21.313 14.344q0 0.484 0.211 1t0.5 0.906 0.586 0.719 0.516 0.5l0.203 0.172-3.547 3.5q-0.625-0.578-1.234-1.18t-0.906-0.914l-0.297-0.313q-0.172-0.172-0.391-0.516-0.594 0.922-1.523 1.602t-1.992 0.992-2.188 0.359-2.148-0.328-1.836-1.023-1.297-1.766-0.484-2.539q0-1.313 0.438-2.406t1.125-1.82 1.664-1.297 1.914-0.891 2.031-0.539 1.867-0.289 1.555-0.102v-1.984q0-1.016-0.328-1.516-0.531-0.828-1.891-0.828-0.094 0-0.258 0.016t-0.633 0.187-0.875 0.461-0.875 0.93-0.75 1.5l-4.594-0.422q0-0.938 0.344-1.859t1.047-1.766 1.687-1.484 2.367-1.023 2.977-0.383q1.563 0 2.828 0.391t2.023 0.961 1.266 1.297 0.703 1.344 0.195 1.148v9.203zM10.813 14.672q0 1.344 1.094 2.078 1.031 0.688 2.172 0.344 1.313-0.391 1.781-1.922 0.219-0.703 0.219-1.578v-2.531q-0.922 0.031-1.734 0.187t-1.664 0.523-1.359 1.109-0.508 1.789z"></path>
</svg>
