<?xml version="1.0" ?><svg id="Layer_1" style="enable-background:new 0 0 100 100;" version="1.1" viewBox="0 0 100 100" xml:space="preserve" xmlns="http://www.w3.org/2000/svg" xmlns:xlink="http://www.w3.org/1999/xlink"><path d="M81,20.5L81,5c0-0.3-0.1-0.5-0.3-0.7S80.3,4,80,4H63.1c-0.4,0-0.7,0.2-0.9,0.5l-0.9,1.6l-7.7,12.3l-2.1,2.7H24.8  c-0.6,0-1,0.4-1,1v23.3c0,0.6,0.4,1,1,1h14.9l0.7,0.8l-16.5,31c-0.1,0.1-0.1,0.3-0.1,0.5V95c0,0.6,0.4,1,1,1h16.9  c0.4,0,0.7-0.2,0.9-0.5l9.2-16.3l1.2-1.8h27c0.6,0,1-0.4,1-1V54.6c0-0.6-0.4-1-1-1H65.1l-0.7-0.7L80.9,21C81,20.8,81,20.7,81,20.5z"/></svg>