<?xml version="1.0" ?><svg id="Layer_1" style="enable-background:new 0 0 100 100;" version="1.1" viewBox="0 0 100 100" xml:space="preserve" xmlns="http://www.w3.org/2000/svg" xmlns:xlink="http://www.w3.org/1999/xlink"><g><path d="M66.1,72.3c-0.2,0.1-0.3,0.2-0.5,0.2c-0.2,0-0.5-0.1-0.7-0.2L50,59.4L35.5,72.9c-0.2,0.2-0.4,0.3-0.7,0.3   c-0.2,0-0.3,0-0.5-0.1l-11.1-6.5c-0.7-0.4-1.5,0.1-1.5,0.9l0,5c0,0.3,0.2,0.7,0.5,0.8L49.5,91c0,0,0,0,0,0c0,0,0,0,0,0   c0,0,0.1,0,0.1,0c0,0,0.1,0,0.1,0c0.1,0,0.2,0,0.3,0c0.1,0,0.2,0,0.3,0c0,0,0.1,0,0.1,0c0,0,0.1,0,0.1-0.1c0,0,0,0,0,0c0,0,0,0,0,0   l27.3-17.7c0.3-0.2,0.5-0.5,0.5-0.8v-6c0-0.8-0.9-1.3-1.5-0.8L66.1,72.3z"/><path d="M4.4,28.3l18,13.7L9.1,54.1c-0.5,0.5-0.4,1.3,0.2,1.6l25.5,15.2l14.6-13.6c0,0,0.1,0,0.1-0.1c0.1,0,0.1-0.1,0.2-0.1   c0.1,0,0.1,0,0.2,0c0.1,0,0.1,0,0.2,0c0.1,0,0.1,0,0.2,0c0.1,0,0.1,0,0.2,0c0.1,0,0.1,0.1,0.2,0.1c0,0,0.1,0,0.1,0.1l15,13l25.2-16   c0.6-0.4,0.6-1.2,0.1-1.6L77.8,41.3l17.8-13c0.3-0.2,0.4-0.5,0.4-0.9c0-0.3-0.2-0.6-0.5-0.8L71.4,12.1c-0.3-0.2-0.7-0.2-1.1,0   L51.6,24.7L32.9,12.2c-0.3-0.2-0.7-0.2-1-0.1L4.5,26.6C4.2,26.7,4,27,4,27.4C4,27.7,4.1,28.1,4.4,28.3z M51.6,27l22.7,14.2L50,56.8   L25.9,41.9L51.6,27z"/></g></svg>