<?xml version="1.0" ?><svg id="Layer_1" style="enable-background:new 0 0 100 100;" version="1.1" viewBox="0 0 100 100" xml:space="preserve" xmlns="http://www.w3.org/2000/svg" xmlns:xlink="http://www.w3.org/1999/xlink"><g><path d="M50.1,70.8c-0.6,0-1-0.4-1-1L49,34.9c0-0.6,0.5-1,1-1c0.6,0,1,0.4,1,1l0.1,34.9C51.1,70.4,50.6,70.8,50.1,70.8   C50.1,70.8,50.1,70.8,50.1,70.8z"/><path d="M45,70.8c-0.6,0-1-0.4-1-1l-0.1-34.9c0-0.6,0.4-1,1-1c0,0,0,0,0,0c0.6,0,1,0.4,1,1L46,69.8C46,70.4,45.6,70.8,45,70.8   C45,70.8,45,70.8,45,70.8z"/><path d="M40.1,70.8c-0.6,0-1-0.4-1-1L39,39.9c0-0.6,0.4-1,1-1c0,0,0,0,0,0c0.6,0,1,0.4,1,1l0.1,29.9C41.1,70.4,40.6,70.8,40.1,70.8   C40.1,70.8,40.1,70.8,40.1,70.8z"/><path d="M35.1,70.8c-0.6,0-1-0.4-1-1L34,39.9c0-0.6,0.4-1,1-1c0,0,0,0,0,0c0.6,0,1,0.4,1,1l0.1,29.9C36.1,70.4,35.6,70.8,35.1,70.8   C35.1,70.8,35.1,70.8,35.1,70.8z"/><path d="M30.1,70.8c-0.6,0-1-0.4-1-1L29,39.9c0-0.6,0.4-1,1-1c0,0,0,0,0,0c0.6,0,1,0.4,1,1l0.1,29.9C31.1,70.4,30.6,70.8,30.1,70.8   C30.1,70.8,30.1,70.8,30.1,70.8z"/><path d="M25.1,70.8c-0.6,0-1-0.4-1-1L24,44.9c0-0.6,0.4-1,1-1c0,0,0,0,0,0c0.6,0,1,0.4,1,1l0.1,24.9C26.1,70.4,25.6,70.8,25.1,70.8   C25.1,70.8,25.1,70.8,25.1,70.8z"/><path d="M20.1,70.8c-0.6,0-1-0.4-1-1L19,54.9c0-0.6,0.4-1,1-1c0,0,0,0,0,0c0.6,0,1,0.4,1,1l0.1,14.9C21.1,70.4,20.6,70.8,20.1,70.8   C20.1,70.8,20.1,70.8,20.1,70.8z"/><path d="M15.1,70.8c-0.6,0-1-0.4-1-1L14,49.9c0-0.6,0.4-1,1-1c0,0,0,0,0,0c0.6,0,1,0.4,1,1l0.1,19.9C16.1,70.4,15.6,70.8,15.1,70.8   C15.1,70.8,15.1,70.8,15.1,70.8z"/><path d="M10,70.8c-0.6,0-1-0.4-1-1L8.9,49.9c0-0.6,0.4-1,1-1c0,0,0,0,0,0c0.6,0,1,0.4,1,1L11,69.8C11,70.4,10.6,70.8,10,70.8   C10,70.8,10,70.8,10,70.8z"/><path d="M5,70.8c-0.6,0-1-0.4-1-1L3.9,54.9c0-0.6,0.4-1,1-1c0,0,0,0,0,0c0.6,0,1,0.4,1,1L6,69.8C6,70.4,5.6,70.8,5,70.8   C5,70.8,5,70.8,5,70.8z"/><path d="M95.9,55.9c-0.7-6.2-5.7-11.2-11.8-11.9c-1.5-0.2-2.9-0.1-4.4,0.2l-0.9,0.2C75,35.7,66.8,29.8,57.2,29   c-0.8-0.1-1.7,0.2-2.3,0.8c-0.6,0.6-1,1.4-1,2.2v35.9c0,1.7,1.3,3,3,3h25.5c3.8,0,7.5-1.6,10.1-4.5C95.1,63.6,96.3,59.7,95.9,55.9z   "/></g></svg>