<?xml version="1.0" encoding="utf-8"?>
<!-- Generated by IcoMoon.io -->
<!DOCTYPE svg PUBLIC "-//W3C//DTD SVG 1.1//EN" "http://www.w3.org/Graphics/SVG/1.1/DTD/svg11.dtd">
<svg version="1.1" xmlns="http://www.w3.org/2000/svg" xmlns:xlink="http://www.w3.org/1999/xlink" width="36" height="28" viewBox="0 0 36 28">
<path d="M11.641 14.156q0 0.578-0.398 0.961t-0.977 0.383q-0.453 0-0.727-0.25t-0.273-0.688q0-0.578 0.391-0.977t0.969-0.398q0.438 0 0.727 0.258t0.289 0.711zM23.906 11.828q0 0.656-0.344 0.891t-1.031 0.234l-0.5 0.016 0.266-1.672q0.031-0.172 0.203-0.172h0.281q0.344 0 0.547 0.031t0.391 0.195 0.187 0.477zM29.391 14.156q0 0.562-0.398 0.953t-0.961 0.391q-0.453 0-0.734-0.25t-0.281-0.688q0-0.578 0.391-0.977t0.969-0.398q0.438 0 0.727 0.258t0.289 0.711zM8.016 11.484q0-0.922-0.602-1.336t-1.57-0.414h-2.5q-0.297 0-0.328 0.297l-1.016 6.375q-0.016 0.094 0.047 0.172t0.156 0.078h1.188q0.313 0 0.344-0.297l0.281-1.719q0.016-0.125 0.109-0.203t0.234-0.102 0.266-0.023 0.297 0.016 0.219 0.016q1.344 0 2.109-0.758t0.766-2.102zM12.844 16.359l0.641-4.078q0.016-0.094-0.047-0.172t-0.156-0.078h-1.188q-0.219 0-0.266 0.516-0.422-0.625-1.484-0.625-1.125 0-1.914 0.844t-0.789 1.984q0 0.922 0.539 1.469t1.445 0.547q0.438 0 0.906-0.187t0.75-0.5q-0.063 0.187-0.063 0.328 0 0.25 0.203 0.25h1.078q0.297 0 0.344-0.297zM19.828 12.25q0-0.078-0.063-0.148t-0.141-0.070h-1.203q-0.172 0-0.281 0.156l-1.656 2.438-0.688-2.344q-0.078-0.25-0.344-0.25h-1.172q-0.078 0-0.141 0.070t-0.063 0.148q0 0.031 0.305 0.922t0.656 1.922 0.367 1.094q-1.281 1.75-1.281 1.875 0 0.203 0.203 0.203h1.203q0.172 0 0.281-0.156l3.984-5.75q0.031-0.031 0.031-0.109zM25.766 11.484q0-0.922-0.602-1.336t-1.57-0.414h-2.484q-0.313 0-0.344 0.297l-1.016 6.375q-0.016 0.094 0.047 0.172t0.156 0.078h1.281q0.187 0 0.25-0.203l0.281-1.813q0.016-0.125 0.109-0.203t0.234-0.102 0.266-0.023 0.297 0.016 0.219 0.016q1.344 0 2.109-0.758t0.766-2.102zM30.594 16.359l0.641-4.078q0.016-0.094-0.047-0.172t-0.156-0.078h-1.188q-0.219 0-0.266 0.516-0.406-0.625-1.484-0.625-1.125 0-1.914 0.844t-0.789 1.984q0 0.922 0.539 1.469t1.445 0.547q0.453 0 0.922-0.187t0.734-0.5q0 0.016-0.031 0.141t-0.031 0.187q0 0.25 0.203 0.25h1.078q0.297 0 0.344-0.297zM34 9.969v-0.016q0-0.219-0.203-0.219h-1.156q-0.172 0-0.203 0.172l-1.016 6.5-0.016 0.031q0 0.078 0.063 0.148t0.156 0.070h1.031q0.297 0 0.328-0.297zM6.125 12.063q-0.078 0.547-0.406 0.719t-0.938 0.172l-0.516 0.016 0.266-1.672q0.031-0.172 0.203-0.172h0.297q0.625 0 0.906 0.18t0.187 0.758zM36 4v20q0 0.812-0.594 1.406t-1.406 0.594h-32q-0.812 0-1.406-0.594t-0.594-1.406v-20q0-0.812 0.594-1.406t1.406-0.594h32q0.812 0 1.406 0.594t0.594 1.406z"></path>
</svg>
