<?xml version="1.0" encoding="utf-8"?>
<!-- Generated by IcoMoon.io -->
<!DOCTYPE svg PUBLIC "-//W3C//DTD SVG 1.1//EN" "http://www.w3.org/Graphics/SVG/1.1/DTD/svg11.dtd">
<svg version="1.1" xmlns="http://www.w3.org/2000/svg" xmlns:xlink="http://www.w3.org/1999/xlink" width="24" height="28" viewBox="0 0 24 28">
<path d="M23.734 10.094q0.281 1.313-0.063 3.187-1.359 6.937-8.828 6.937h-0.688q-0.391 0-0.688 0.258t-0.375 0.664l-0.063 0.297-0.859 5.406-0.031 0.234q-0.078 0.406-0.383 0.664t-0.695 0.258h-3.922q-0.328 0-0.516-0.234t-0.141-0.562q0.141-0.875 0.414-2.625t0.414-2.625 0.422-2.617 0.422-2.617q0.078-0.578 0.672-0.578h2.047q2.078 0.031 3.687-0.328 2.734-0.609 4.484-2.25 1.594-1.484 2.422-3.844 0.375-1.094 0.547-2.078 0.016-0.094 0.039-0.117t0.055-0.016 0.094 0.055q1.234 0.922 1.531 2.531zM21.047 5.688q0 1.672-0.719 3.687-1.25 3.641-4.719 4.922-1.766 0.625-3.938 0.656 0 0.016-1.406 0.016l-1.406-0.016q-1.563 0-1.844 1.5-0.031 0.125-1.328 8.281-0.016 0.156-0.187 0.156h-4.609q-0.344 0-0.57-0.258t-0.18-0.602l3.625-22.984q0.078-0.453 0.43-0.75t0.805-0.297h9.344q0.531 0 1.523 0.203t1.742 0.5q1.672 0.641 2.555 1.922t0.883 3.063z"></path>
</svg>
