<?xml version="1.0" encoding="utf-8"?>
<!-- Generated by IcoMoon.io -->
<!DOCTYPE svg PUBLIC "-//W3C//DTD SVG 1.1//EN" "http://www.w3.org/Graphics/SVG/1.1/DTD/svg11.dtd">
<svg version="1.1" xmlns="http://www.w3.org/2000/svg" xmlns:xlink="http://www.w3.org/1999/xlink" width="24" height="28" viewBox="0 0 24 28">
<path d="M20.188 9.969q0.156-3.375-2.516-3.469-3.609-0.125-4.875 4.078 0.688-0.297 1.281-0.297 1.328 0 1.156 1.5-0.063 0.891-1.156 2.609t-1.641 1.719q-0.672 0-1.281-2.641-0.203-0.844-0.703-3.984-0.469-2.953-2.5-2.766-0.922 0.109-2.562 1.563l-2.531 2.25 0.812 1.047q1.188-0.812 1.359-0.812 0.891 0 1.672 2.797 0.234 0.859 0.703 2.57t0.703 2.57q1.062 2.797 2.562 2.797 2.453 0 5.984-4.594 3.437-4.422 3.531-6.937zM24 6.5v15q0 1.859-1.32 3.18t-3.18 1.32h-15q-1.859 0-3.18-1.32t-1.32-3.18v-15q0-1.859 1.32-3.18t3.18-1.32h15q1.859 0 3.18 1.32t1.32 3.18z"></path>
</svg>
