<?xml version="1.0" encoding="utf-8"?>
<!-- Generated by IcoMoon.io -->
<!DOCTYPE svg PUBLIC "-//W3C//DTD SVG 1.1//EN" "http://www.w3.org/Graphics/SVG/1.1/DTD/svg11.dtd">
<svg version="1.1" xmlns="http://www.w3.org/2000/svg" xmlns:xlink="http://www.w3.org/1999/xlink" width="24" height="28" viewBox="0 0 24 28">
<path d="M14.672 17.641q0.203 0.203 0 0.406-0.828 0.828-2.672 0.828t-2.672-0.828q-0.203-0.203 0-0.406 0.078-0.094 0.203-0.094t0.203 0.094q0.656 0.656 2.266 0.656t2.266-0.656q0.078-0.094 0.203-0.094t0.203 0.094zM10.563 15.203q0 0.484-0.359 0.844t-0.844 0.359-0.844-0.359-0.359-0.844q0-0.5 0.352-0.852t0.852-0.352 0.852 0.352 0.352 0.852zM15.844 15.203q0 0.484-0.359 0.844t-0.844 0.359-0.844-0.359-0.359-0.844q0-0.5 0.352-0.852t0.852-0.352 0.852 0.352 0.352 0.852zM19.203 13.594q0-0.656-0.469-1.125t-1.141-0.469q-0.656 0-1.141 0.484-1.766-1.219-4.172-1.281l0.844-3.797 2.672 0.609q0.016 0.5 0.367 0.844t0.836 0.344q0.5 0 0.852-0.352t0.352-0.852-0.352-0.852-0.852-0.352q-0.75 0-1.078 0.672l-2.953-0.656q-0.266-0.078-0.328 0.203l-0.938 4.188q-2.406 0.094-4.141 1.297-0.469-0.5-1.156-0.5-0.672 0-1.141 0.469t-0.469 1.125q0 0.469 0.25 0.859t0.656 0.594q-0.078 0.391-0.078 0.75 0 1.906 1.875 3.258t4.516 1.352q2.656 0 4.531-1.352t1.875-3.258q0-0.391-0.094-0.766 0.391-0.203 0.633-0.586t0.242-0.852zM24 6.5v15q0 1.859-1.32 3.18t-3.18 1.32h-15q-1.859 0-3.18-1.32t-1.32-3.18v-15q0-1.859 1.32-3.18t3.18-1.32h15q1.859 0 3.18 1.32t1.32 3.18z"></path>
</svg>
