<?xml version="1.0" encoding="utf-8"?>
<!-- Generated by IcoMoon.io -->
<!DOCTYPE svg PUBLIC "-//W3C//DTD SVG 1.1//EN" "http://www.w3.org/Graphics/SVG/1.1/DTD/svg11.dtd">
<svg version="1.1" xmlns="http://www.w3.org/2000/svg" xmlns:xlink="http://www.w3.org/1999/xlink" width="28" height="28" viewBox="0 0 28 28">
<path d="M17.109 18.234q0.25 0.25 0 0.484-0.969 0.969-3.109 0.969t-3.109-0.969q-0.25-0.234 0-0.484 0.094-0.094 0.234-0.094t0.234 0.094q0.75 0.766 2.641 0.766 1.875 0 2.641-0.766 0.094-0.094 0.234-0.094t0.234 0.094zM12.313 15.406q0 0.578-0.406 0.984t-0.984 0.406-0.992-0.406-0.414-0.984q0-0.594 0.414-1t0.992-0.406 0.984 0.414 0.406 0.992zM18.484 15.406q0 0.578-0.414 0.984t-0.992 0.406-0.984-0.406-0.406-0.984 0.406-0.992 0.984-0.414 0.992 0.406 0.414 1zM22.406 13.531q0-0.766-0.547-1.313t-1.328-0.547-1.344 0.562q-2.031-1.406-4.859-1.5l0.984-4.422 3.125 0.703q0 0.578 0.406 0.984t0.984 0.406 0.992-0.414 0.414-0.992-0.414-0.992-0.992-0.414q-0.844 0-1.25 0.781l-3.453-0.766q-0.297-0.078-0.391 0.25l-1.078 4.875q-2.812 0.109-4.828 1.516-0.547-0.578-1.359-0.578-0.781 0-1.328 0.547t-0.547 1.313q0 0.547 0.289 1t0.773 0.688q-0.094 0.422-0.094 0.875 0 2.219 2.188 3.797t5.266 1.578q3.094 0 5.281-1.578t2.188-3.797q0-0.5-0.109-0.891 0.469-0.234 0.75-0.68t0.281-0.992zM28 14q0 2.844-1.109 5.437t-2.984 4.469-4.469 2.984-5.437 1.109-5.437-1.109-4.469-2.984-2.984-4.469-1.109-5.437 1.109-5.437 2.984-4.469 4.469-2.984 5.437-1.109 5.437 1.109 4.469 2.984 2.984 4.469 1.109 5.437z"></path>
</svg>
