<?xml version="1.0" encoding="utf-8"?>
<!-- Generated by IcoMoon.io -->
<!DOCTYPE svg PUBLIC "-//W3C//DTD SVG 1.1//EN" "http://www.w3.org/Graphics/SVG/1.1/DTD/svg11.dtd">
<svg version="1.1" xmlns="http://www.w3.org/2000/svg" xmlns:xlink="http://www.w3.org/1999/xlink" width="28" height="28" viewBox="0 0 28 28">
<path d="M28 13.219q0 0.906-0.461 1.648t-1.242 1.133q0.187 0.719 0.187 1.5 0 2.422-1.664 4.484t-4.539 3.258-6.25 1.195-6.242-1.195-4.531-3.258-1.664-4.484q0-0.734 0.172-1.469-0.797-0.391-1.281-1.148t-0.484-1.664q0-1.281 0.906-2.195t2.203-0.914q1.328 0 2.266 0.984 3.406-2.375 8.047-2.531l1.813-8.141q0.047-0.203 0.234-0.328t0.406-0.078l5.766 1.266q0.281-0.578 0.844-0.93t1.234-0.352q0.969 0 1.656 0.68t0.688 1.648-0.688 1.656-1.656 0.688-1.648-0.68-0.68-1.648l-5.219-1.156-1.625 7.375q4.688 0.141 8.109 2.5 0.906-0.953 2.234-0.953 1.297 0 2.203 0.914t0.906 2.195zM6.531 16.328q0 0.969 0.68 1.656t1.648 0.688 1.656-0.688 0.688-1.656-0.688-1.648-1.656-0.68q-0.953 0-1.641 0.688t-0.688 1.641zM19.187 21.875q0.172-0.172 0.172-0.406t-0.172-0.406q-0.156-0.156-0.391-0.156t-0.406 0.156q-0.641 0.656-1.891 0.969t-2.5 0.313-2.5-0.313-1.891-0.969q-0.172-0.156-0.406-0.156t-0.391 0.156q-0.172 0.156-0.172 0.398t0.172 0.414q0.672 0.672 1.852 1.062t1.914 0.461 1.422 0.070 1.422-0.070 1.914-0.461 1.852-1.062zM19.141 18.672q0.969 0 1.648-0.688t0.68-1.656q0-0.953-0.688-1.641t-1.641-0.688q-0.969 0-1.656 0.68t-0.688 1.648 0.688 1.656 1.656 0.688z"></path>
</svg>
