<svg xmlns="http://www.w3.org/2000/svg" viewBox="0 0 86 86">
  <path d="M4.5594,44.7476c.3842-.0257.5142.305.7161.5235.8373.9059,1.66,1.8253,2.5,2.7287A4.5546,4.5546,0,0,0,9.6971,49.261a4.13,4.13,0,0,0,.7056.1495l.023-.0127a15.67,15.67,0,0,1-1.0291-1.3094c-.2777-.4362-.6494-.85-.5208-1.4378,0,0,.6513.7065.9924,1.0465a6.7513,6.7513,0,0,0,2.7728,1.7341c-.309-.7833-.3293-1.5473-1.12-1.9375-.4106-.2026-.4866-.6107-.3173-1.15,1.8292-.02,3.69-.0313,5.55-.0613,1.8625-.03,3.7248-.0784,5.6673-.12-.1157-.9652-.203-1.8687-.3367-2.7652a9.6089,9.6089,0,0,1,.2169-3.3344,2.3754,2.3754,0,0,1,1.1133-1.569c.2174-.14.433-.2847.661-.4055A2.0175,2.0175,0,0,0,25.37,36.3358c-.3193-.5174-.6907-1.0967-1.0394-1.6894a2.167,2.167,0,0,1,.4779-2.7885.7179.7179,0,0,1,.3044-.1537,2.7055,2.7055,0,0,1,2.3841.3694,2.4773,2.4773,0,0,0,1.497.5518c.1674.0133.3347.0279.4958.0413.0368.5366.0368.5366-1.0558.92l.6844.9064a1.1008,1.1008,0,0,0-.2366,1.1784.6155.6155,0,0,1-.2573.8263c-.1456.0918-.28.2015-.4557.33a1.9437,1.9437,0,0,0,1.1782.4849,4.1173,4.1173,0,0,1,1.9791.7774c.5632.398,1.1134.8194,1.7044,1.1716a4.3856,4.3856,0,0,0,3.3951.4921,12.222,12.222,0,0,0,3.488-1.6543A142.7544,142.7544,0,0,1,52.9477,31.07a33.1383,33.1383,0,0,1,11.9669-3.28,28.2084,28.2084,0,0,1,15.35,2.9708c.89.45,1.7187,1.02,2.6208,1.5611-.1713-.0325-.6684.407-.5958.5522,0,0,.3253.32.4843.4689a9.6777,9.6777,0,0,1,2.9139,6.0817,20.2321,20.2321,0,0,1-.8133,7.9152,3.3032,3.3032,0,0,0,.1549,2.572,6.2663,6.2663,0,0,1,.2976.8951c.8016,2.2964-1.3193,4.357-3.0841,4.4762a16.1678,16.1678,0,0,1-2.3138-.0436c-1.03-.0788-2.0565-.2114-3.0826-.3365a4.6925,4.6925,0,0,1-.6831-.1924c.1882-.3644.5283-.3833.8035-.497.7678-.3172.7689-.312.6313-1.132a.8474.8474,0,0,1,.0342-.2122,1.5777,1.5777,0,0,1,.9548.4672c.2393.2064.4566.44.7052.6337a1.3287,1.3287,0,0,0,2.0436-.2126A6.6246,6.6246,0,0,0,83.09,49.55a1.5479,1.5479,0,0,1,.0193-.3152.8262.8262,0,0,1,.2775-.0146c.5786.0432.835-.2913.9466-.795.31-1.4.6878-2.79.9082-4.204a15.4585,15.4585,0,0,0-.1182-5.7392,9.2648,9.2648,0,0,0-5.124-6.5477,25.9307,25.9307,0,0,0-12.9117-2.7606,34.5461,34.5461,0,0,0-13.5046,3.4363,80.1978,80.1978,0,0,0-14.4077,8.5856c-.55.4163-1.0753.8645-1.6171,1.2914-.2671.2105-.4725.4644-.343.8089.1357.361-.07.531-.2912.7243-.4913.4284-.9786.8614-1.5759,1.3881.5629,0,.9612.0306,1.3536-.0051q3.1734-.2886,6.3442-.6063c1.8571-.1853,3.7145-.37,5.5685-.5834,2.6525-.3048,5.3041-.6189,7.9523-.9587A69.4466,69.4466,0,0,0,66.75,41.1033c.2819-.08.6224-.3229.8659.0328.2141.3126-.0511.5976-.1646.881a1.1429,1.1429,0,0,1-.1748.2957,26.3022,26.3022,0,0,0-2.074,3.1586,10.9878,10.9878,0,0,1-5.8551,4.5847A27.4872,27.4872,0,0,1,54.83,51.1269c-.391.0736-.78.1556-1.3595.2715l5.4263.6523-.0081.2044q-1.4175.03-2.8349.0594c-.977.02-1.9567.0025-2.93.0707a22.9961,22.9961,0,0,0-2.8733.4127c3.1581.6065,6.3428,1.0185,9.4992,1.6392-4.6019.1194-9.1936-.4916-13.9472-.0042,2.0562.3357,3.9539.62,5.8415.9609a46.3342,46.3342,0,0,1,5.67,1.34c-1.635-.0357-3.1824-.09-4.73-.0991a69.8439,69.8439,0,0,0-9.2741.66,81.6873,81.6873,0,0,1-9.4411.77q-5.6034.0633-11.2062.1737c-.8.0146-1.6.0892-2.4073.0733a37.1749,37.1749,0,0,1,8.01-1.5884,62.2415,62.2415,0,0,0-10.71-.5754l-.0117-.17,8.6354-1.4881a49.1247,49.1247,0,0,0-7.1933-.801l2.5606-.75-.01-.1434c-1.14-.037-2.28-.0991-3.42-.1062-3.3642-.021-6.7288.0023-10.0928-.0363-2.067-.0237-4.1331-.1249-6.1993-.2012a4.7309,4.7309,0,0,1-1.1033-.18,31.0272,31.0272,0,0,1,6.632-1.0145A36.55,36.55,0,0,0,.1936,47.5739a3.61,3.61,0,0,1,1.9508.2072c1.5023.4768,2.9827,1.0232,4.47,1.5478.6969.2459,1.389.5057,2.1116.713a11.7194,11.7194,0,0,1-4.154-5.3057ZM44.282,36.942c-.4427-.317-.7028-.0761-.9643.08-1.4047.8376-2.8029,1.6862-4.2079,2.5232a1.754,1.754,0,0,0-.6659.7252c-.3629.66-.7605,1.3732-1.7583,1.1993a1.2331,1.2331,0,0,0-1.1463.5821c.6348.7369.8852.7693,1.574.2089.3337-.2716.6344-.5861.981-.8387,1.8089-1.3177,3.628-2.6215,5.4429-3.9308C43.7638,37.3274,43.9872,37.1594,44.282,36.942ZM33.6809,45.5848l.138-2.1459c-1.5781.2217-2.0776.7964-1.86,2.1459ZM31.8722,43.08l2.3588-1.5327a2.3551,2.3551,0,0,0-2.5612-.0246ZM59.19,29.8523c-.5581-.6842-6.7081,1.788-6.5281,2.4739A44.7154,44.7154,0,0,1,59.19,29.8523Zm1.0094-.3a41.1111,41.1111,0,0,1,6.02-.9233C65.9031,28.013,59.913,28.8017,60.2,29.5518ZM35.2345,42.2048a2.908,2.908,0,0,0-.9816.7841l.3743.7932C35.5359,43.5312,35.13,42.8239,35.2345,42.2048Zm32.184-13.6426a25.7035,25.7035,0,0,1,5.6816.5953C73.1171,28.254,67.4185,27.8909,67.4185,28.5622ZM78.4261,30.77a17.7833,17.7833,0,0,1,3.3294,1.7251C82.2745,32.1671,78.5031,30.198,78.4261,30.77Zm-.563-.2453c.4613-.518-3.7325-1.7233-3.7324-1.1391A14.9169,14.9169,0,0,1,77.8631,30.525ZM52.0106,32.6678c-.6842-.6221-6.7236,2.8606-6.4333,3.5416A47.3746,47.3746,0,0,1,52.0106,32.6678Z"/>
</svg>
