<svg xmlns="http://www.w3.org/2000/svg" viewBox="0 0 237.1176 70">
  <g>
    <g>
      <path d="M2.0464,34.7822v-32.9H14.6621v24.3H31.5547v8.6006Z"/>
      <path d="M35.0288,34.7822v-32.9H47.6445v32.9Z"/>
      <path d="M65.4985,34.7822l-15.8232-32.9H63.2534L76.1362,29.6592H68.0645L81.3218,1.8818H93.7236L77.9,34.7822Z"/>
      <path d="M107.3555,26.416h18.7094v8.3662H94.9531v-32.9H125.37V10.248H107.3555ZM106.5,14.1025h16.6782v7.9893H106.5Z"/>
    </g>
    <g>
      <path d="M127.4756,34.7822v-32.9h2.8672l22.7,28.5762h-1.5039V1.8818h3.4316v32.9h-2.8672L129.45,6.2061h1.5039V34.7822Z"/>
      <path d="M175.4619,35.0176a13.6871,13.6871,0,0,1-6.7676-1.6221,11.773,11.773,0,0,1-4.5595-4.4648,12.7608,12.7608,0,0,1-1.6446-6.51,13.0761,13.0761,0,0,1,1.5743-6.4854,11.6626,11.6626,0,0,1,4.3242-4.4414,11.9351,11.9351,0,0,1,6.1806-1.622,12.0557,12.0557,0,0,1,6.18,1.5742,11.2275,11.2275,0,0,1,4.2539,4.418,13.4756,13.4756,0,0,1,1.5508,6.5566c0,.1572-.0078.3223-.0234.4941s-.0235.3526-.0235.54H165.0283V20.9639h19.6924l-1.3154.9873a9.7278,9.7278,0,0,0-1.1524-4.77,8.4807,8.4807,0,0,0-3.125-3.2666,8.7529,8.7529,0,0,0-4.5586-1.1748,8.9116,8.9116,0,0,0-4.5595,1.1748,8.1688,8.1688,0,0,0-3.1485,3.29,10.1208,10.1208,0,0,0-1.1289,4.8408v.5176a9.6621,9.6621,0,0,0,1.2461,4.958,8.69,8.69,0,0,0,3.4776,3.3369,10.6149,10.6149,0,0,0,5.1,1.1992,10.9838,10.9838,0,0,0,4.207-.8,8.7392,8.7392,0,0,0,3.36-2.4433l1.88,2.1621a10.6027,10.6027,0,0,1-4.1123,3.0078A13.91,13.91,0,0,1,175.4619,35.0176Z"/>
      <path d="M197.9277,34.7822l-9.3056-24.6748h3.1953l8.4609,22.8887h-1.457l8.6943-22.8887h2.8672l8.6006,22.8887h-1.457l8.6015-22.8887h3.0547L219.83,34.7822h-3.1494l-8.2715-21.5263h.9863l-8.3184,21.5263Z"/>
    </g>
    <g>
      <path d="M127.4761,69.1768v-32.9H139.79a17.592,17.592,0,0,1,7.1905,1.34,10.3516,10.3516,0,0,1,4.63,3.8545,10.99,10.99,0,0,1,1.621,6.0859,10.8119,10.8119,0,0,1-1.621,5.9922,10.4974,10.4974,0,0,1-4.63,3.878A17.3138,17.3138,0,0,1,139.79,58.79H129.4033l1.5508-1.6455V69.1768Zm3.478-11.75-1.5508-1.6924h10.293q4.935,0,7.4961-2.1377a7.4323,7.4323,0,0,0,2.5615-6.04,7.5591,7.5591,0,0,0-2.5615-6.11q-2.562-2.1606-7.4961-2.1611h-10.293l1.5508-1.6456Z"/>
      <path d="M166.7676,69.4121a11.6844,11.6844,0,0,1-4.8174-.917,7.1558,7.1558,0,0,1-3.126-2.5381,6.5777,6.5777,0,0,1-1.081-3.7363,6.8288,6.8288,0,0,1,.917-3.501,6.4477,6.4477,0,0,1,3.0078-2.5381,13.604,13.604,0,0,1,5.6162-.9638h8.5068V57.709h-8.4121q-3.5727,0-4.959,1.2685a4.0973,4.0973,0,0,0-1.3867,3.15,4.0557,4.0557,0,0,0,1.6455,3.3837,7.3859,7.3859,0,0,0,4.6055,1.2686,8.91,8.91,0,0,0,4.8652-1.292,7.4334,7.4334,0,0,0,2.9844-3.7363l.7519,2.3027a7.8431,7.8431,0,0,1-3.2666,3.9014A10.8371,10.8371,0,0,1,166.7676,69.4121Zm8.5068-.2353V63.7246l-.1406-.8926V53.7139a6.399,6.399,0,0,0-1.7627-4.8409,7.2946,7.2946,0,0,0-5.24-1.6923,13.0567,13.0567,0,0,0-4.56.7988,11.6347,11.6347,0,0,0-3.666,2.1152l-1.5039-2.4912a13.3512,13.3512,0,0,1,4.5117-2.4668,17.5554,17.5554,0,0,1,5.5459-.87q4.7945,0,7.4033,2.374t2.6084,7.2139V69.1768Z"/>
      <path d="M189.2334,39.05a2.3624,2.3624,0,0,1-1.7393-.7051,2.3088,2.3088,0,0,1-.705-1.6924,2.2318,2.2318,0,0,1,.705-1.6679,2.4052,2.4052,0,0,1,1.7393-.6817,2.453,2.453,0,0,1,1.7383.6582,2.1558,2.1558,0,0,1,.7051,1.6446,2.4065,2.4065,0,0,1-.6817,1.7392A2.3427,2.3427,0,0,1,189.2334,39.05Zm-1.6924,30.127V44.502h3.3369V69.1768Z"/>
      <path d="M200.1836,69.1768V44.502H203.38v6.7207l-.3291-1.1748a8.1313,8.1313,0,0,1,3.4785-4.3008,11.5157,11.5157,0,0,1,6.0625-1.4805V47.51a3.0221,3.0221,0,0,1-.376-.0235,3.0413,3.0413,0,0,0-.376-.0234,7.9381,7.9381,0,0,0-6.1093,2.373q-2.2106,2.3745-2.209,6.7452V69.1768Z"/>
      <path d="M225.5635,69.4121a18.8992,18.8992,0,0,1-5.7813-.87,12.3627,12.3627,0,0,1-4.2763-2.1856l1.5039-2.6318a14.22,14.22,0,0,0,3.8535,1.95,14.8191,14.8191,0,0,0,4.9355.8232q3.5244,0,5.0762-1.1044a3.4391,3.4391,0,0,0,1.5508-2.9375,2.7221,2.7221,0,0,0-.8692-2.1387,5.7026,5.7026,0,0,0-2.28-1.1748,27.9545,27.9545,0,0,0-3.1485-.6817q-1.74-.2826-3.455-.6582a12.6183,12.6183,0,0,1-3.125-1.1045,6.1169,6.1169,0,0,1-2.28-1.997,5.8891,5.8891,0,0,1-.8692-3.3848,6.1227,6.1227,0,0,1,1.128-3.6182,7.4408,7.4408,0,0,1,3.3134-2.5146,13.793,13.793,0,0,1,5.335-.917,18.6765,18.6765,0,0,1,4.794.6348,13.2,13.2,0,0,1,3.9472,1.6679l-1.457,2.68a11.2387,11.2387,0,0,0-3.5244-1.622,14.755,14.755,0,0,0-3.76-.4932,8.3786,8.3786,0,0,0-4.9121,1.1514,3.5006,3.5006,0,0,0-1.5742,2.9375,2.8472,2.8472,0,0,0,.8691,2.2089,5.9752,5.9752,0,0,0,2.3037,1.2461,23.2009,23.2009,0,0,0,3.1485.7276q1.7152.2828,3.4316.6816A15.5922,15.5922,0,0,1,232.59,57.168a5.7885,5.7885,0,0,1,2.3028,1.9277,5.5877,5.5877,0,0,1,.8691,3.2656,5.992,5.992,0,0,1-1.1972,3.7373,7.6619,7.6619,0,0,1-3.4786,2.4434A15.5239,15.5239,0,0,1,225.5635,69.4121Z"/>
    </g>
  </g>
  <path d="M18.3982,56.1258c.3843-.0256.5143.305.7162.5235.8373.9059,1.66,1.8253,2.5,2.7287a4.5546,4.5546,0,0,0,1.9218,1.2612,4.1283,4.1283,0,0,0,.7056.1495l.023-.0126a15.6552,15.6552,0,0,1-1.0291-1.3095c-.2778-.4362-.6495-.85-.5208-1.4378,0,0,.6512.7065.9924,1.0465A6.7513,6.7513,0,0,0,26.48,60.8094c-.3091-.7833-.3294-1.5473-1.12-1.9375-.4106-.2025-.4866-.6107-.3173-1.15,1.8292-.0194,3.69-.0312,5.55-.0613,1.8626-.03,3.7249-.0784,5.6674-.12-.1157-.9652-.203-1.8686-.3367-2.7651A9.6119,9.6119,0,0,1,36.14,51.44a2.3758,2.3758,0,0,1,1.1134-1.569c.2174-.14.433-.2847.661-.4055a2.0175,2.0175,0,0,0,1.2939-1.7519c-.3193-.5174-.6907-1.0967-1.0394-1.6894a2.1667,2.1667,0,0,1,.4779-2.7885.7182.7182,0,0,1,.3043-.1537,2.7058,2.7058,0,0,1,2.3841.3694,2.4778,2.4778,0,0,0,1.4971.5518c.1674.0133.3347.0279.4958.0413.0368.5366.0368.5366-1.0559.92l.6845.9064A1.1006,1.1006,0,0,0,42.72,47.05a.6154.6154,0,0,1-.2574.8263c-.1455.0919-.28.2015-.4556.33a1.9435,1.9435,0,0,0,1.1782.4849,4.1161,4.1161,0,0,1,1.979.7775c.5632.3979,1.1135.8193,1.7045,1.1715a4.386,4.386,0,0,0,3.3951.4922,12.2262,12.2262,0,0,0,3.488-1.6544,142.728,142.728,0,0,1,13.0346-7.0291,33.14,33.14,0,0,1,11.9669-3.28,28.21,28.21,0,0,1,15.35,2.9708c.89.45,1.7187,1.02,2.6208,1.5611-.1714-.0325-.6684.407-.5959.5523,0,0,.3254.32.4844.4689a9.6772,9.6772,0,0,1,2.9139,6.0816,20.2344,20.2344,0,0,1-.8133,7.9153,3.303,3.303,0,0,0,.1548,2.5719,6.2583,6.2583,0,0,1,.2977.8951c.8016,2.2964-1.3193,4.357-3.0842,4.4762a16.1521,16.1521,0,0,1-2.3137-.0436c-1.03-.0788-2.0565-.2114-3.0826-.3365a4.681,4.681,0,0,1-.6832-.1924c.1882-.3644.5283-.3833.8036-.497.7677-.3172.7689-.312.6312-1.132a.8522.8522,0,0,1,.0342-.2122,1.5785,1.5785,0,0,1,.9549.4672c.2393.2065.4566.44.7052.6337a1.3286,1.3286,0,0,0,2.0436-.2126,6.6245,6.6245,0,0,0,1.7536-4.2083,1.5471,1.5471,0,0,1,.0193-.3152.821.821,0,0,1,.2775-.0146c.5786.0431.8349-.2914.9466-.795.31-1.4.6878-2.79.9081-4.204A15.459,15.459,0,0,0,98.962,49.86a9.2649,9.2649,0,0,0-5.1241-6.5477,25.93,25.93,0,0,0-12.9116-2.7606,34.5461,34.5461,0,0,0-13.5046,3.4363,80.2021,80.2021,0,0,0-14.4078,8.5856c-.55.4163-1.0752.8645-1.6171,1.2915-.2671.21-.4725.4644-.343.8089.1357.3609-.0694.5309-.2911.7242-.4913.4284-.9786.8614-1.576,1.3882.5629,0,.9613.0305,1.3537-.0051q3.1734-.2887,6.3442-.6064c1.8571-.1853,3.7145-.37,5.5685-.5833,2.6525-.3049,5.3041-.619,7.9522-.9588a69.4281,69.4281,0,0,0,10.1837-2.151c.282-.08.6224-.3229.866.0328.2141.3126-.0512.5976-.1646.8811a1.1424,1.1424,0,0,1-.1748.2956,26.2954,26.2954,0,0,0-2.074,3.1587,10.9876,10.9876,0,0,1-5.8551,4.5846,27.49,27.49,0,0,1-4.5176,1.0708c-.391.0736-.78.1556-1.3595.2716l5.4263.6522-.0081.2044q-1.4175.03-2.8349.0594c-.977.02-1.9567.0025-2.93.0708a22.9745,22.9745,0,0,0-2.8733.4126c3.1581.6065,6.3428,1.0185,9.4992,1.6392-4.6019.1194-9.1936-.4916-13.9473-.0042,2.0563.3357,3.954.62,5.8415.9609a46.3136,46.3136,0,0,1,5.67,1.3406c-1.635-.0358-3.1824-.09-4.73-.0992a69.826,69.826,0,0,0-9.2741.66,81.6649,81.6649,0,0,1-9.4412.77q-5.6033.0633-11.2061.1737c-.8.0146-1.6.0892-2.4074.0733a37.1758,37.1758,0,0,1,8.01-1.5884,62.2415,62.2415,0,0,0-10.71-.5754l-.0117-.17,8.6353-1.4882a49.1356,49.1356,0,0,0-7.1932-.801l2.5606-.75-.01-.1434c-1.14-.037-2.28-.0991-3.4205-.1062-3.3642-.021-6.7288.0023-10.0927-.0363-2.067-.0236-4.1332-.1248-6.1993-.2012a4.7359,4.7359,0,0,1-1.1033-.18A31.0192,31.0192,0,0,1,21.19,62.6367a36.5529,36.5529,0,0,0-7.1573-3.6846,3.61,3.61,0,0,1,1.9508.2072c1.5024.4768,2.9828,1.0232,4.47,1.5479.6969.2459,1.389.5056,2.1115.7129a11.72,11.72,0,0,1-4.1539-5.3057ZM58.1209,48.32c-.4427-.3169-.7029-.0761-.9643.08-1.4048.8375-2.8029,1.6861-4.2079,2.5232a1.7531,1.7531,0,0,0-.6659.7251c-.3629.66-.7605,1.3732-1.7584,1.1993a1.2336,1.2336,0,0,0-1.1463.5821c.6349.7369.8853.7694,1.5741.2089.3336-.2715.6344-.5861.981-.8386,1.8089-1.3178,3.6279-2.6215,5.4429-3.9309C57.6027,48.7056,57.826,48.5377,58.1209,48.32ZM47.52,56.963l.138-2.1459c-1.5781.2218-2.0776.7964-1.8605,2.1459Zm-1.8087-2.5047L48.07,52.9256a2.355,2.355,0,0,0-2.5613-.0245Zm27.318-13.2278c-.5582-.6842-6.7081,1.788-6.5282,2.4739A44.721,44.721,0,0,1,73.0291,41.2305Zm1.0094-.3a41.1246,41.1246,0,0,1,6.02-.9233C79.742,39.3912,73.7519,40.18,74.0385,40.93ZM49.0733,53.583a2.91,2.91,0,0,0-.9815.7841l.3743.7932C49.3748,54.9094,48.9685,54.2021,49.0733,53.583ZM81.2573,39.94a25.7038,25.7038,0,0,1,5.6817.5953C86.956,39.6322,81.2573,39.2692,81.2573,39.94Zm11.0076,2.2081a17.79,17.79,0,0,1,3.3295,1.7251C96.1134,43.5453,92.3419,41.5762,92.2649,42.1485Zm-.5629-.2453c.4612-.518-3.7325-1.7233-3.7324-1.1391A14.921,14.921,0,0,1,91.702,41.9032ZM65.85,44.046c-.6843-.6221-6.7236,2.8606-6.4333,3.5416A47.3746,47.3746,0,0,1,65.85,44.046Z"/>
</svg>
