<?xml version="1.0" ?><!DOCTYPE svg  PUBLIC '-//W3C//DTD SVG 1.1//EN'  'http://www.w3.org/Graphics/SVG/1.1/DTD/svg11.dtd'><svg height="100%" style="fill-rule:evenodd;clip-rule:evenodd;stroke-linejoin:round;stroke-miterlimit:2;" version="1.1" viewBox="0 0 435 100" width="100%" xml:space="preserve" xmlns="http://www.w3.org/2000/svg" xmlns:serif="http://www.serif.com/" xmlns:xlink="http://www.w3.org/1999/xlink"><g id="Artboard1" transform="matrix(1,0,0,1,-83,-150.1)"><rect height="100" style="fill:none;" width="434.6" x="83" y="150.1"/><g transform="matrix(1,0,0,1,0,0.1)"><path d="M229.2,218.6C224.7,218.6 220.5,217.6 216.7,215.6C213,213.6 210,210.8 207.7,207.1C205.5,203.4 204.4,199.3 204.4,194.8C204.4,190.3 205.5,186.2 207.7,182.6C209.9,179 212.9,176.2 216.7,174.1C220.5,172.1 224.6,171.1 229.2,171.1C233.7,171.1 237.9,172.1 241.6,174.1C245.4,176.1 248.4,178.9 250.5,182.6C252.7,186.2 253.8,190.3 253.8,194.8C253.8,199.3 252.7,203.4 250.5,207.1C248.3,210.7 245.3,213.5 241.6,215.6C237.9,217.6 233.7,218.6 229.2,218.6ZM229.2,208.3C233,208.3 236.1,207.1 238.4,204.6C240.7,202.1 241.9,198.9 241.9,194.8C241.9,190.7 240.7,187.4 238.4,185C236.1,182.5 233.1,181.3 229.2,181.3C225.3,181.3 222.2,182.5 219.9,184.9C217.6,187.3 216.5,190.6 216.5,194.7C216.5,198.8 217.6,202.1 219.9,204.5C222.2,207.1 225.3,208.3 229.2,208.3Z" style="fill-rule:nonzero;"/></g><g transform="matrix(1,0,0,1,0,0.1)"><path d="M272,186.5C273.1,184.8 274.7,183.4 276.7,182.3C278.7,181.2 281.1,180.7 283.8,180.7C287,180.7 289.8,181.5 292.4,183C295,184.5 297,186.7 298.4,189.6C299.9,192.5 300.7,195.8 300.7,199.6C300.7,203.4 299.9,206.7 298.4,209.6C296.9,212.5 294.9,214.7 292.4,216.3C289.8,217.8 287,218.6 283.8,218.6C281.2,218.6 278.8,218.1 276.7,217C274.7,215.9 273.1,214.6 272,212.9L272,229L260.3,229L260.3,181.2L272,181.2L272,186.5ZM288.7,199.6C288.7,196.8 287.9,194.6 286.2,193C284.6,191.4 282.6,190.6 280.2,190.6C277.9,190.6 275.9,191.4 274.2,193C272.6,194.6 271.8,196.9 271.8,199.7C271.8,202.5 272.6,204.7 274.2,206.4C275.8,208 277.8,208.8 280.2,208.8C282.5,208.8 284.5,208 286.2,206.4C287.9,204.7 288.7,202.5 288.7,199.6Z" style="fill-rule:nonzero;"/></g><g transform="matrix(1,0,0,1,0,0.1)"><path d="M342.8,199.1C342.8,200.2 342.7,201.3 342.6,202.4L316.1,202.4C316.3,204.7 317,206.5 318.4,207.7C319.8,208.9 321.4,209.5 323.4,209.5C326.3,209.5 328.4,208.3 329.5,205.9L342,205.9C341.4,208.3 340.2,210.5 338.5,212.4C336.9,214.3 334.8,215.9 332.3,217C329.8,218.1 327,218.7 323.9,218.7C320.2,218.7 316.8,217.9 313.9,216.4C311,214.9 308.7,212.7 307.1,209.8C305.5,206.9 304.6,203.6 304.6,199.8C304.6,196 305.4,192.6 307,189.8C308.6,186.9 310.9,184.7 313.8,183.2C316.7,181.7 320.1,180.9 323.9,180.9C327.6,180.9 330.9,181.6 333.8,183.1C336.7,184.6 338.9,186.7 340.5,189.5C342,192.2 342.8,195.4 342.8,199.1ZM330.8,196.1C330.8,194.2 330.1,192.6 328.7,191.5C327.3,190.4 325.6,189.8 323.6,189.8C321.6,189.8 320,190.4 318.6,191.5C317.3,192.6 316.5,194.2 316.1,196.2L330.8,196.2L330.8,196.1Z" style="fill-rule:nonzero;"/></g><g transform="matrix(1,0,0,1,0,0.1)"><path d="M372.3,180.9C376.8,180.9 380.3,182.3 383,185.1C385.7,187.9 387,191.7 387,196.6L387,218.1L375.4,218.1L375.4,198.1C375.4,195.6 374.7,193.7 373.4,192.4C372.1,191 370.3,190.4 368.1,190.4C365.9,190.4 364.1,191.1 362.8,192.4C361.5,193.8 360.8,195.7 360.8,198.1L360.8,218.1L349,218.1L349,181.2L360.7,181.2L360.7,186.1C361.9,184.5 363.5,183.2 365.5,182.3C367.5,181.4 369.8,180.9 372.3,180.9Z" style="fill-rule:nonzero;"/></g><g transform="matrix(1,0,0,1,0,0.1)"><path d="M412.5,218.6C409,218.6 405.8,218 403,216.9C400.2,215.8 398,214.2 396.3,212C394.7,209.8 393.8,207.2 393.7,204.2L406.2,204.2C406.4,205.9 407,207.2 408.1,208.2C409.1,209.1 410.5,209.5 412.2,209.5C413.9,209.5 415.3,209.1 416.3,208.4C417.3,207.6 417.8,206.5 417.8,205.2C417.8,204.1 417.4,203.1 416.6,202.4C415.8,201.7 414.8,201 413.7,200.6C412.6,200.1 410.9,199.6 408.8,198.9C405.7,198 403.2,197.1 401.2,196.1C399.2,195.2 397.5,193.8 396.1,192C394.7,190.2 394,187.8 394,184.9C394,180.6 395.6,177.2 398.9,174.8C402.1,172.3 406.4,171.1 411.6,171.1C416.9,171.1 421.2,172.3 424.4,174.8C427.6,177.2 429.4,180.6 429.6,185L416.9,185C416.8,183.5 416.2,182.3 415.2,181.5C414.2,180.6 412.8,180.2 411.2,180.2C409.8,180.2 408.6,180.6 407.8,181.3C406.9,182 406.5,183 406.5,184.4C406.5,185.9 407.2,187.1 408.7,187.9C410.2,188.7 412.4,189.6 415.5,190.6C418.6,191.6 421.1,192.6 423,193.5C425,194.4 426.7,195.8 428.1,197.5C429.5,199.3 430.2,201.5 430.2,204.3C430.2,206.9 429.5,209.3 428.1,211.5C426.7,213.7 424.7,215.4 422.1,216.7C419.3,218 416.2,218.6 412.5,218.6Z" style="fill-rule:nonzero;"/></g><g transform="matrix(1,0,0,1,0,0.1)"><path d="M473.3,199.1C473.3,200.2 473.2,201.3 473.1,202.4L446.6,202.4C446.8,204.7 447.5,206.5 448.9,207.7C450.3,208.9 451.9,209.5 453.9,209.5C456.8,209.5 458.9,208.3 460,205.9L472.5,205.9C471.9,208.3 470.7,210.5 469,212.4C467.4,214.3 465.3,215.9 462.8,217C460.3,218.1 457.5,218.7 454.4,218.7C450.7,218.7 447.3,217.9 444.4,216.4C441.5,214.9 439.2,212.7 437.6,209.8C436,206.9 435.1,203.6 435.1,199.8C435.1,196 435.9,192.6 437.5,189.8C439.1,186.9 441.4,184.7 444.3,183.2C447.2,181.7 450.6,180.9 454.4,180.9C458.1,180.9 461.4,181.6 464.3,183.1C467.2,184.6 469.4,186.7 471,189.5C472.5,192.2 473.3,195.4 473.3,199.1ZM461.3,196.1C461.3,194.2 460.6,192.6 459.2,191.5C457.8,190.4 456.1,189.8 454.1,189.8C452.1,189.8 450.5,190.4 449.1,191.5C447.8,192.6 447,194.2 446.6,196.2L461.3,196.2L461.3,196.1Z" style="fill-rule:nonzero;"/></g><g transform="matrix(1,0,0,1,0,0.1)"><path d="M477.2,199.6C477.2,195.8 477.9,192.5 479.4,189.6C480.9,186.7 482.9,184.5 485.5,183C488.1,181.5 490.9,180.7 494.1,180.7C496.8,180.7 499.1,181.2 501.2,182.3C503.3,183.4 504.8,184.7 505.9,186.5L505.9,181.3L517.6,181.3L517.6,218.2L505.9,218.2L505.9,213C504.8,214.7 503.2,216.1 501.1,217.2C499.1,218.3 496.7,218.8 494,218.8C490.9,218.8 488.1,218 485.5,216.5C482.9,214.9 480.9,212.7 479.4,209.8C477.9,206.8 477.2,203.4 477.2,199.6ZM505.8,199.7C505.8,196.9 505,194.7 503.3,193C501.7,191.4 499.7,190.6 497.4,190.6C495.1,190.6 493.1,191.4 491.4,193C489.8,194.6 489,196.8 489,199.6C489,202.4 489.8,204.7 491.4,206.3C493,207.9 495,208.7 497.4,208.7C499.7,208.7 501.7,207.9 503.3,206.3C505,204.8 505.8,202.5 505.8,199.7Z" style="fill-rule:nonzero;"/></g><g transform="matrix(1,0,0,1,83,150.1)"><path d="M50.093,0.74C77.321,0.74 99.427,22.845 99.427,50.073C99.427,77.301 77.321,99.407 50.093,99.407C22.865,99.407 0.76,77.301 0.76,50.073C0.76,22.845 22.865,0.74 50.093,0.74ZM63.569,36.482L63.831,36.818C63.961,36.986 64.088,37.15 64.2,37.3C64.3,37.5 64.5,37.7 64.6,38C64.775,38.263 64.931,38.525 65.084,38.788L65.216,39.012C65.369,39.275 65.525,39.538 65.7,39.8C65.8,40.1 66,40.4 66.1,40.7C66.5,41.5 66.8,42.3 66.9,43.2C67,43.4 67,43.6 67,43.7C67.1,43.9 67.1,44.2 67.1,44.5C67.2,45.4 67.1,46.2 67,47.1C66.963,47.25 66.925,47.386 66.888,47.518L66.813,47.782C66.775,47.914 66.738,48.05 66.7,48.2C66.6,48.5 66.5,48.9 66.3,49.3C66,50 65.6,50.7 65.2,51.4C65.1,51.6 64.9,51.9 64.7,52.2C64.5,52.5 64.3,52.7 64.2,53C64,53.3 63.7,53.6 63.5,53.9C63.3,54.2 63.1,54.5 62.8,54.8C62.5,55.2 62.1,55.6 61.8,56C61.6,56.2 61.4,56.5 61.1,56.7C60.9,56.9 60.7,57.2 60.4,57.4C60.1,57.7 59.8,58 59.5,58.2L58.9,58.7C58.8,58.8 58.7,58.8 58.6,58.8L54.2,58.8L54.2,64.4L59.7,64.4C60.9,64.4 62.1,64 63,63.2C63.3,62.9 64.7,61.7 66.4,59.9C66.5,59.8 66.5,59.8 66.6,59.8L81.8,55.4C82.4,55.1 82.6,55.3 82.6,55.6L82.6,58.8C82.6,59 82.5,59.1 82.3,59.2C81.3,59.6 77.8,61.2 76.4,63.2C72.7,68.3 69.9,75.6 63.7,75.6L37.6,75.6C28.4,75.6 20.9,68.1 20.9,58.8L20.9,58.5C20.9,58.3 21.1,58.1 21.3,58.1L36,58.1C36.3,58.1 36.5,58.4 36.5,58.6C36.4,59.5 36.6,60.5 37,61.4C37.9,63.2 39.7,64.2 41.6,64.2L48.8,64.2L48.8,58.6L41.7,58.6C41.3,58.6 41.1,58.2 41.3,57.9C41.4,57.8 41.5,57.7 41.6,57.5C42.3,56.5 43.2,55.1 44.2,53.4C44.9,52.3 45.5,51 46,49.8C46.1,49.6 46.2,49.4 46.3,49.1C46.4,48.7 46.6,48.3 46.7,48C46.8,47.7 46.9,47.4 47,47.1C47.2,46.1 47.3,45 47.3,43.8C47.3,43.4 47.3,42.9 47.2,42.4C47.2,42.181 47.181,41.962 47.159,41.744L47.141,41.556C47.119,41.337 47.1,41.119 47.1,40.9C47.1,40.5 47,40 46.9,39.6C46.8,38.9 46.7,38.3 46.5,37.6L46.4,37.4C46.3,37 46.2,36.5 46,36.1C45.6,34.7 45.1,33.3 44.6,32.1C44.4,31.6 44.2,31.1 44,30.6C43.7,29.9 43.4,29.2 43.1,28.6C43,28.3 42.8,28.1 42.7,27.8C42.6,27.5 42.4,27.2 42.3,26.9C42.2,26.7 42.1,26.5 42,26.3L41.1,24.7C41,24.5 41.2,24.2 41.4,24.3L46.9,25.8L47.6,26L48.4,26.2L48.7,26.3L48.7,23C48.7,21.4 50,20.1 51.5,20.1C52.3,20.1 53,20.4 53.5,20.9C54,21.4 54.3,22.1 54.3,22.9L54.3,27.7L54.9,27.9C54.9,27.9 55,27.9 55,28C55.1,28.1 55.3,28.3 55.6,28.5C55.8,28.7 56,28.9 56.3,29.1C56.8,29.5 57.5,30.1 58.2,30.7C58.4,30.9 58.6,31 58.7,31.2C59.6,32 60.6,33 61.6,34.1C61.9,34.4 62.1,34.7 62.4,35C62.7,35.3 62.9,35.7 63.2,36C63.313,36.15 63.439,36.314 63.569,36.482ZM24.7,51.8L24.9,51.5L37.9,31.2C38.1,30.9 38.5,30.9 38.7,31.3C40.9,36.2 42.7,42.2 41.9,46C41.5,47.6 40.5,49.7 39.3,51.6C39.2,51.9 39,52.2 38.8,52.4C38.7,52.5 38.6,52.6 38.4,52.6L25,52.6C24.7,52.5 24.5,52.1 24.7,51.8Z"/></g></g></svg>