<svg xmlns="http://www.w3.org/2000/svg" viewBox="0 0 600 600">
  <path d="M441.4214,158.5786,512.132,87.868A299.0611,299.0611,0,0,0,300,0V100A199.374,199.374,0,0,1,441.4214,158.5786Z" fill="#963"/>
  <path d="M300,100V0A299.0611,299.0611,0,0,0,87.868,87.868l70.7106,70.7106A199.374,199.374,0,0,1,300,100Z" fill="#933"/>
  <path d="M500,300H600A299.0611,299.0611,0,0,0,512.132,87.868l-70.7106,70.7106A199.374,199.374,0,0,1,500,300Z" fill="#983"/>
  <path d="M158.5786,158.5786,87.868,87.868A299.0611,299.0611,0,0,0,0,300H100A199.374,199.374,0,0,1,158.5786,158.5786Z" fill="#639"/>
  <path d="M300,500V600a299.0611,299.0611,0,0,0,212.132-87.868l-70.7106-70.7107A199.3741,199.3741,0,0,1,300,500Z" fill="#395"/>
  <path d="M500,300a199.3738,199.3738,0,0,1-58.5786,141.4213L512.132,512.132A299.0611,299.0611,0,0,0,600,300Z" fill="#693"/>
  <path d="M158.5786,441.4213,87.868,512.132A299.0611,299.0611,0,0,0,300,600V500A199.3741,199.3741,0,0,1,158.5786,441.4213Z" fill="#359"/>
  <path d="M100,300H0A299.0611,299.0611,0,0,0,87.868,512.132l70.7106-70.7107A199.3738,199.3738,0,0,1,100,300Z" fill="#439"/>
  <path d="M200,300H100a199.3738,199.3738,0,0,0,58.5786,141.4213l70.7107-70.7106A99.6872,99.6872,0,0,1,200,300Z" fill="#76c"/>
  <path d="M229.2893,229.2893l-70.7107-70.7107A199.374,199.374,0,0,0,100,300H200A99.6871,99.6871,0,0,1,229.2893,229.2893Z" fill="#96c"/>
  <path d="M300,200V100a199.374,199.374,0,0,0-141.4214,58.5786l70.7107,70.7107A99.6872,99.6872,0,0,1,300,200Z" fill="#c66"/>
  <path d="M370.7107,229.2893l70.7107-70.7107A199.374,199.374,0,0,0,300,100V200A99.6872,99.6872,0,0,1,370.7107,229.2893Z" fill="#c96"/>
  <path d="M229.2893,370.7107l-70.7107,70.7106A199.3741,199.3741,0,0,0,300,500V400A99.6871,99.6871,0,0,1,229.2893,370.7107Z" fill="#68c"/>
  <path d="M441.4214,158.5786l-70.7107,70.7107A99.6871,99.6871,0,0,1,400,300H500A199.374,199.374,0,0,0,441.4214,158.5786Z" fill="#cb6"/>
  <path d="M370.7107,370.7107l70.7107,70.7106A199.3738,199.3738,0,0,0,500,300H400A99.6872,99.6872,0,0,1,370.7107,370.7107Z" fill="#9c6"/>
  <path d="M300,400V500a199.3741,199.3741,0,0,0,141.4214-58.5787l-70.7107-70.7106A99.6871,99.6871,0,0,1,300,400Z" fill="#6c8"/>
  <path d="M300,300l-70.7107-70.7106A99.6871,99.6871,0,0,0,200,300H300Z" fill="#c9f"/>
  <path d="M300,200a99.6872,99.6872,0,0,0-70.7107,29.2893L300,300Z" fill="#f99"/>
  <path d="M200,300a99.6872,99.6872,0,0,0,29.2893,70.7107L300,300Z" fill="#a9f"/>
  <path d="M300,300H400a99.6871,99.6871,0,0,0-29.2893-70.7107L300,300Z" fill="#fe9"/>
  <path d="M300,300l70.7107-70.7106A99.6872,99.6872,0,0,0,300,200Z" fill="#fc9"/>
  <path d="M370.7107,370.7107A99.6872,99.6872,0,0,0,400,300H300Z" fill="#cf9"/>
  <path d="M300,300l-70.7107,70.7107A99.6871,99.6871,0,0,0,300,400V300Z" fill="#9bf"/>
  <path d="M300,300V400a99.6871,99.6871,0,0,0,70.7107-29.2893L300,300Z" fill="#9fb"/>
</svg>
